<svg width="24" height="24" viewBox="0 0 24 24" fill="none" xmlns="http://www.w3.org/2000/svg">
<path d="M11.6729 7.22161C10.7969 7.22161 9.44089 6.22561 8.01289 6.26161C6.12889 6.28561 4.40089 7.35361 3.42889 9.04561C1.47289 12.4416 2.92489 17.4576 4.83289 20.2176C5.76889 21.5616 6.87289 23.0736 8.33689 23.0256C9.74089 22.9656 10.2689 22.1136 11.9729 22.1136C13.6649 22.1136 14.1449 23.0256 15.6329 22.9896C17.1449 22.9656 18.1049 21.6216 19.0289 20.2656C20.0969 18.7056 20.5409 17.1936 20.5649 17.1096C20.5289 17.0976 17.6249 15.9816 17.5889 12.6216C17.5649 9.81361 19.8809 8.46961 19.9889 8.40961C18.6689 6.47761 16.6409 6.26161 15.9329 6.21361C14.0849 6.06961 12.5369 7.22161 11.6729 7.22161ZM14.7929 4.38961C15.5729 3.45361 16.0889 2.14561 15.9449 0.849609C14.8289 0.897609 13.4849 1.59361 12.6809 2.52961C11.9609 3.35761 11.3369 4.68961 11.5049 5.96161C12.7409 6.05761 14.0129 5.32561 14.7929 4.38961Z" fill="black"/>
</svg>
