<svg width="24" height="24" viewBox="0 0 24 24" fill="none" xmlns="http://www.w3.org/2000/svg">
<g clip-path="url(#clip0_187_71)">
<path d="M8.36055 0.788944C5.96258 1.62082 3.89457 3.19976 2.46029 5.29382C1.026 7.38789 0.301037 9.88671 0.391883 12.4233C0.482728 14.9598 1.38459 17.4004 2.96501 19.3864C4.54543 21.3725 6.72109 22.7995 9.17243 23.4577C11.1598 23.9705 13.2419 23.993 15.2399 23.5233C17.0499 23.1168 18.7233 22.2471 20.0962 20.9996C21.5251 19.6615 22.5622 17.9592 23.0962 16.0758C23.6763 14.0277 23.7796 11.8738 23.3981 9.77957H12.2381V14.4089H18.7012C18.572 15.1473 18.2952 15.852 17.8873 16.4809C17.4795 17.1098 16.9489 17.6499 16.3274 18.0689C15.5383 18.5912 14.6486 18.9425 13.7156 19.1002C12.7798 19.2742 11.82 19.2742 10.8843 19.1002C9.93584 18.9043 9.03863 18.5129 8.24993 17.9508C6.98271 17.0538 6.0312 15.7794 5.53118 14.3096C5.02285 12.8122 5.02285 11.1889 5.53118 9.69144C5.8871 8.64185 6.47549 7.6862 7.25243 6.89582C8.14154 5.97472 9.26718 5.31631 10.5058 4.99284C11.7445 4.66936 13.0484 4.69331 14.2743 5.06207C15.2321 5.35593 16.1078 5.86959 16.8318 6.56207C17.5606 5.83707 18.2881 5.11019 19.0143 4.38144C19.3893 3.98957 19.7981 3.61644 20.1674 3.21519C19.0622 2.18679 17.7649 1.38651 16.3499 0.860194C13.7731 -0.0754498 10.9536 -0.100594 8.36055 0.788944Z" fill="white"/>
<path d="M8.3607 0.789855C10.9536 -0.100288 13.7731 -0.0758051 16.3501 0.85923C17.7653 1.38913 19.062 2.19326 20.1657 3.22548C19.7907 3.62673 19.3951 4.00173 19.0126 4.39173C18.2851 5.11798 17.5582 5.84173 16.832 6.56298C16.108 5.8705 15.2322 5.35684 14.2745 5.06298C13.0489 4.69293 11.7451 4.66759 10.5061 4.98975C9.26712 5.3119 8.14079 5.9691 7.2507 6.88923C6.47377 7.67961 5.88538 8.63526 5.52945 9.68486L1.64258 6.67548C3.03384 3.91653 5.44273 1.80615 8.3607 0.789855Z" fill="#E33629"/>
<path d="M0.611401 9.65605C0.820163 8.62063 1.16701 7.61792 1.64265 6.6748L5.52953 9.69168C5.02119 11.1891 5.02119 12.8124 5.52953 14.3098C4.23453 15.3098 2.9389 16.3148 1.64265 17.3248C0.452308 14.9554 0.0892746 12.2557 0.611401 9.65605Z" fill="#F8BD00"/>
<path d="M12.2381 9.77832H23.3981C23.7797 11.8726 23.6764 14.0264 23.0963 16.0746C22.5623 17.958 21.5252 19.6602 20.0963 20.9983C18.8419 20.0196 17.5819 19.0483 16.3275 18.0696C16.9494 17.6501 17.4802 17.1094 17.8881 16.4798C18.296 15.8503 18.5726 15.1448 18.7013 14.4058H12.2381C12.2363 12.8646 12.2381 11.3214 12.2381 9.77832Z" fill="#587DBD"/>
<path d="M1.64062 17.3246C2.93687 16.3246 4.2325 15.3196 5.5275 14.3096C6.02851 15.7799 6.98138 17.0544 8.25 17.9508C9.04116 18.5103 9.9403 18.8985 10.89 19.0908C11.8257 19.2649 12.7855 19.2649 13.7212 19.0908C14.6543 18.9331 15.544 18.5818 16.3331 18.0596C17.5875 19.0383 18.8475 20.0096 20.1019 20.9883C18.7292 22.2366 17.0558 23.1068 15.2456 23.5139C13.2476 23.9836 11.1655 23.9611 9.17812 23.4483C7.60632 23.0286 6.13814 22.2888 4.86562 21.2752C3.51886 20.2057 2.41882 18.8582 1.64062 17.3246Z" fill="#319F43"/>
</g>
<defs>
<clipPath id="clip0_187_71">
<rect width="24" height="24" fill="white"/>
</clipPath>
</defs>
</svg>
